<svg xmlns="http://www.w3.org/2000/svg" width="25" height="25" viewBox="0 0 25 25" fill="none">
  <g opacity="0.5">
    <mask id="path-1-inside-1_0_401" fill="white">
      <path fill-rule="evenodd" clip-rule="evenodd" d="M6.67639 6.82398C6.18632 7.31405 6.18632 8.10861 6.67639 8.59868L10.5585 12.4808L6.67639 16.363C6.18632 16.8531 6.18632 17.6476 6.67639 18.1377C7.16645 18.6278 7.96101 18.6278 8.45108 18.1377L12.3332 14.2555L16.2154 18.1377C16.7055 18.6278 17.5 18.6278 17.9901 18.1377C18.4802 17.6476 18.4802 16.8531 17.9901 16.363L14.1079 12.4808L17.9901 8.59868C18.4802 8.10861 18.4802 7.31405 17.9901 6.82398C17.5 6.33391 16.7055 6.33391 16.2154 6.82398L12.3332 10.7061L8.45108 6.82398C7.96102 6.33391 7.16646 6.33391 6.67639 6.82398Z"/>
    </mask>
    <path fill-rule="evenodd" clip-rule="evenodd" d="M6.67639 6.82398C6.18632 7.31405 6.18632 8.10861 6.67639 8.59868L10.5585 12.4808L6.67639 16.363C6.18632 16.8531 6.18632 17.6476 6.67639 18.1377C7.16645 18.6278 7.96101 18.6278 8.45108 18.1377L12.3332 14.2555L16.2154 18.1377C16.7055 18.6278 17.5 18.6278 17.9901 18.1377C18.4802 17.6476 18.4802 16.8531 17.9901 16.363L14.1079 12.4808L17.9901 8.59868C18.4802 8.10861 18.4802 7.31405 17.9901 6.82398C17.5 6.33391 16.7055 6.33391 16.2154 6.82398L12.3332 10.7061L8.45108 6.82398C7.96102 6.33391 7.16646 6.33391 6.67639 6.82398Z" fill="white"/>
    <path d="M6.67639 8.59868L7.38349 7.89157L6.67639 8.59868ZM10.5585 12.4808L11.2656 13.1879L11.9728 12.4808L11.2656 11.7737L10.5585 12.4808ZM6.67639 16.363L7.38349 17.0701L6.67639 16.363ZM8.45108 18.1377L9.15819 18.8448L8.45108 18.1377ZM12.3332 14.2555L13.0403 13.5484L12.3332 12.8413L11.6261 13.5484L12.3332 14.2555ZM16.2154 18.1377L15.5083 18.8448L16.2154 18.1377ZM17.9901 16.363L17.283 17.0701L17.9901 16.363ZM14.1079 12.4808L13.4008 11.7737L12.6937 12.4808L13.4008 13.1879L14.1079 12.4808ZM17.9901 8.59868L17.283 7.89157L17.9901 8.59868ZM16.2154 6.82398L15.5083 6.11687L16.2154 6.82398ZM12.3332 10.7061L11.6261 11.4132L12.3332 12.1203L13.0403 11.4132L12.3332 10.7061ZM7.38349 7.89157C7.28395 7.79203 7.28395 7.63063 7.38349 7.53109L5.96928 6.11687C5.08868 6.99747 5.08868 8.42519 5.96928 9.30579L7.38349 7.89157ZM11.2656 11.7737L7.38349 7.89157L5.96928 9.30579L9.85143 13.1879L11.2656 11.7737ZM7.38349 17.0701L11.2656 13.1879L9.85143 11.7737L5.96928 15.6559L7.38349 17.0701ZM7.38349 17.4306C7.28395 17.331 7.28395 17.1696 7.38349 17.0701L5.96928 15.6559C5.08868 16.5365 5.08868 17.9642 5.96928 18.8448L7.38349 17.4306ZM7.74398 17.4306C7.64443 17.5301 7.48304 17.5301 7.38349 17.4306L5.96928 18.8448C6.84987 19.7254 8.2776 19.7254 9.15819 18.8448L7.74398 17.4306ZM11.6261 13.5484L7.74398 17.4306L9.15819 18.8448L13.0403 14.9626L11.6261 13.5484ZM16.9225 17.4306L13.0403 13.5484L11.6261 14.9626L15.5083 18.8448L16.9225 17.4306ZM17.283 17.4306C17.1834 17.5301 17.022 17.5301 16.9225 17.4306L15.5083 18.8448C16.3889 19.7254 17.8166 19.7254 18.6972 18.8448L17.283 17.4306ZM17.283 17.0701C17.3825 17.1696 17.3825 17.331 17.283 17.4306L18.6972 18.8448C19.5778 17.9642 19.5778 16.5365 18.6972 15.6559L17.283 17.0701ZM13.4008 13.1879L17.283 17.0701L18.6972 15.6559L14.815 11.7737L13.4008 13.1879ZM17.283 7.89157L13.4008 11.7737L14.815 13.1879L18.6972 9.30579L17.283 7.89157ZM17.283 7.53109C17.3825 7.63063 17.3825 7.79203 17.283 7.89157L18.6972 9.30579C19.5778 8.42519 19.5778 6.99747 18.6972 6.11687L17.283 7.53109ZM16.9225 7.53109C17.022 7.43154 17.1834 7.43154 17.283 7.53109L18.6972 6.11687C17.8166 5.23628 16.3889 5.23628 15.5083 6.11687L16.9225 7.53109ZM13.0403 11.4132L16.9225 7.53109L15.5083 6.11687L11.6261 9.99903L13.0403 11.4132ZM7.74398 7.53109L11.6261 11.4132L13.0403 9.99903L9.15819 6.11687L7.74398 7.53109ZM7.38349 7.53109C7.48304 7.43154 7.64443 7.43154 7.74398 7.53109L9.15819 6.11687C8.2776 5.23628 6.84987 5.23628 5.96928 6.11687L7.38349 7.53109Z" fill="white" mask="url(#path-1-inside-1_0_401)"/>
  </g>
</svg>